<svg version="1.1" id="Layer_1" xmlns="http://www.w3.org/2000/svg" xmlns:xlink="http://www.w3.org/1999/xlink" x="0px" y="0px"
	 width="100%" viewBox="0 0 1024 1024" enable-background="new 0 0 1024 1024" xml:space="preserve">
<path fill="#000000" opacity="1.000000" stroke="none" 
	d="
M237.790665,280.364899 
	C236.463806,269.802338 233.702515,260.382751 226.141159,252.921921 
	C219.970215,246.833038 212.377518,243.673965 204.178726,241.749969 
	C199.652374,240.687744 194.997742,240.185333 190.433716,239.267487 
	C182.688339,237.709869 186.975952,231.565582 186.297974,227.490311 
	C185.765182,224.287842 185.986526,220.780258 191.188492,220.828201 
	C209.019684,220.992569 226.853409,220.882675 244.686157,220.879272 
	C261.352264,220.876083 278.020569,221.022217 294.683044,220.775208 
	C299.116119,220.709488 301.220947,222.393799 302.722626,226.362946 
	C315.915405,261.232941 329.243622,296.051727 342.542999,330.881348 
	C358.034241,371.451172 373.509216,412.027222 389.075165,452.568359 
	C390.709534,456.825043 391.415253,461.584900 394.781769,465.100952 
	C397.347870,464.414581 397.766602,462.259888 398.445831,460.517120 
	C420.634644,403.585999 442.742401,346.623230 464.939148,289.695190 
	C472.495728,270.314850 480.784271,251.198425 485.174377,230.731873 
	C487.546936,219.671021 485.388184,220.903885 497.541290,220.882156 
	C528.206848,220.827316 558.872620,220.869965 589.538269,220.884109 
	C596.425232,220.887283 596.858337,221.338272 596.935730,228.244324 
	C597.045227,238.015060 597.032715,237.944778 587.750793,239.598846 
	C581.042847,240.794205 574.334839,242.038330 567.697388,243.567001 
	C559.500488,245.454803 554.164001,250.353119 552.552185,258.909088 
	C551.778442,263.016266 551.230103,267.119568 551.231018,271.307709 
	C551.248535,348.805206 551.230469,426.302734 551.263733,503.800232 
	C551.271667,522.223938 557.838623,530.140320 576.011047,533.717896 
	C581.557495,534.809875 587.144775,535.933655 592.764465,536.345337 
	C598.004272,536.729187 597.110291,538.276367 597.168152,550.451904 
	C597.187622,554.554199 594.615234,554.923462 591.510376,554.864380 
	C548.199219,554.041260 504.883331,554.468201 461.569305,554.416992 
	C459.078583,554.414001 456.589050,554.755798 454.096191,554.882751 
	C450.506317,555.065552 448.559540,553.839844 448.687958,549.727600 
	C449.171997,534.226379 446.293488,537.751526 461.487976,535.784058 
	C466.762634,535.101013 472.093170,534.743774 477.316498,533.790344 
	C492.830170,530.958496 500.578217,521.524231 500.610718,505.641022 
	C500.667969,477.642029 500.683563,449.642883 500.689331,421.643799 
	C500.699524,372.145416 500.694702,322.647003 500.668640,273.148621 
	C500.667542,271.059265 501.137939,268.834259 499.749420,266.902222 
	C496.861206,267.182281 496.898468,269.662994 496.232544,271.312653 
	C486.262238,296.011139 476.385925,320.747559 466.487457,345.475006 
	C441.237701,408.551605 415.989227,471.628723 390.734039,534.703186 
	C389.620361,537.484497 388.105682,540.154602 387.372650,543.028320 
	C386.050385,548.212097 382.951050,549.611206 377.832001,549.429016 
	C373.656128,549.280334 371.694855,547.910522 370.239868,543.987305 
	C355.080261,503.110229 339.706116,462.312744 324.436401,421.476440 
	C311.555695,387.029114 298.741882,352.556793 285.883331,318.101227 
	C279.193115,300.174225 272.462433,282.262360 265.777405,264.333435 
	C265.258850,262.942719 264.921570,261.499298 263.242676,260.933807 
	C261.658752,262.582794 262.296692,264.510468 262.296326,266.235291 
	C262.281982,333.732971 262.175415,401.231201 262.457428,468.727814 
	C262.507965,480.823334 263.696899,492.942505 266.865204,504.789368 
	C270.297607,517.623596 277.820557,526.144714 290.771606,529.818054 
	C298.619080,532.043884 306.357513,534.684570 314.434692,535.976990 
	C318.020020,536.550598 319.497314,538.184448 319.377960,541.979431 
	C318.933746,556.103394 321.551727,554.863342 306.652100,554.878296 
	C268.486725,554.916626 230.321259,554.911865 192.155838,554.896118 
	C183.899628,554.892700 183.873505,554.811584 183.898407,546.498535 
	C183.900406,545.831909 183.901993,545.165283 183.904953,544.498657 
	C183.940247,536.563416 184.047607,536.427673 191.804230,535.740845 
	C198.632599,535.136108 205.260208,533.518250 211.818985,531.651550 
	C225.937012,527.633484 233.289566,517.556152 235.570908,503.666016 
	C237.215530,493.652618 237.968170,483.501190 237.963867,473.308411 
	C237.937469,410.810425 237.974609,348.312408 237.981430,285.814423 
	C237.981613,284.151245 237.877655,282.488098 237.790665,280.364899 
z"/>
<path fill="#000000" opacity="1.000000" stroke="none" 
	d="
M756.637939,555.838379 
	C759.869995,555.877991 760.932800,557.528625 760.954712,560.035095 
	C760.983826,563.367310 760.924316,566.700317 760.898682,570.033020 
	C760.877258,572.826050 759.542603,574.144165 756.685181,574.503845 
	C748.440002,575.541687 740.202698,576.537598 732.143066,578.833618 
	C719.972717,582.300781 709.794312,588.382019 701.243286,597.970276 
	C669.876343,633.142395 639.463989,669.214172 605.141174,701.651062 
	C604.313660,702.433167 603.639343,703.377258 602.638123,704.543335 
	C609.884766,712.941589 616.973083,721.276001 624.189697,729.497620 
	C646.390503,754.789856 667.081360,781.316284 688.228271,807.473511 
	C699.217041,821.065918 709.170776,835.554321 721.606689,847.917725 
	C736.240906,862.466736 752.837646,873.408752 774.410583,874.131775 
	C778.715210,874.276062 780.402893,876.181030 780.289001,880.714355 
	C779.937927,894.683838 781.635742,893.135132 768.072266,893.158142 
	C742.072937,893.202209 716.072937,893.110107 690.074585,893.274963 
	C686.295471,893.298950 683.997009,892.146545 681.947876,888.947693 
	C659.174683,853.396790 633.541809,819.952881 606.583923,787.510803 
	C590.828979,768.550720 574.476501,750.106140 557.618103,732.115295 
	C556.004578,730.393372 554.291016,728.430115 551.650330,729.499268 
	C549.275024,730.460938 549.977783,732.909302 549.975708,734.804443 
	C549.935608,771.136780 549.875061,807.469421 549.973389,843.801575 
	C550.016907,859.896667 555.531738,866.823914 571.084656,870.754944 
	C576.080872,872.017761 581.201172,872.781799 586.233032,873.914673 
	C589.041809,874.547058 593.177002,873.400635 594.290649,876.557312 
	C595.944641,881.245361 595.381836,886.408630 594.416260,891.338745 
	C594.166809,892.612610 592.858765,892.993469 591.642334,893.069580 
	C590.313538,893.152893 588.978699,893.166504 587.646484,893.166626 
	C545.314087,893.170898 502.981689,893.170166 460.649292,893.168884 
	C453.832672,893.168701 453.823853,893.156616 453.782776,886.096619 
	C453.714478,874.361267 453.722198,874.481750 465.671661,873.712524 
	C470.636078,873.392883 475.617340,872.715698 480.489044,871.708374 
	C489.766693,869.789978 495.433136,864.061218 497.050323,854.624695 
	C497.498199,852.011475 497.835785,849.340210 497.837067,846.695374 
	C497.875153,767.363831 497.866272,688.032227 497.852051,608.700684 
	C497.851715,606.703491 497.739990,604.704407 497.625763,602.709351 
	C496.996155,591.712830 491.713715,584.492126 481.035980,580.872375 
	C473.757965,578.405029 466.557465,575.861816 458.895630,574.999451 
	C455.293396,574.594055 453.702515,573.004456 453.755157,569.184631 
	C453.965729,553.905273 452.228119,555.898560 466.571960,555.872009 
	C506.737549,555.797729 546.903381,555.854309 587.069153,555.864014 
	C594.896240,555.865906 595.174683,556.037842 594.996033,564.087708 
	C594.777771,573.923218 596.858032,573.859802 584.777100,575.359497 
	C578.026611,576.197449 571.309570,577.647461 564.722107,579.373596 
	C555.682007,581.742249 550.724182,588.403870 550.226257,598.613953 
	C549.877563,605.764954 550.018921,612.941833 550.013550,620.107239 
	C549.990784,650.606506 549.980225,681.105835 550.021729,711.605042 
	C550.024475,713.650574 549.098511,716.346558 551.592468,717.435608 
	C553.940430,718.460999 555.580139,716.358093 557.186157,714.960266 
	C576.287720,698.335388 595.342896,681.649170 612.841736,663.308777 
	C629.058472,646.312256 644.715454,628.806824 658.335205,609.615662 
	C662.862427,603.236511 666.890320,596.502014 667.821655,588.407654 
	C668.336975,583.929199 666.596497,581.176270 662.453308,579.453247 
	C655.265198,576.463928 647.768494,575.367493 640.071533,574.812256 
	C633.271423,574.321655 633.081299,573.865906 633.061218,567.324158 
	C633.020081,553.881714 632.648865,555.849609 644.681091,555.827942 
	C681.845764,555.761047 719.010620,555.815918 756.637939,555.838379 
z"/>
</svg>