<svg version="1.1" id="Layer_1" xmlns="http://www.w3.org/2000/svg" xmlns:xlink="http://www.w3.org/1999/xlink" x="0px" y="0px"
	 width="100%" viewBox="0 0 500 500" enable-background="new 0 0 500 500" xml:space="preserve">
<path fill="#000000" opacity="1.000000" stroke="none" 
	d="
M336.000000,501.000000 
	C224.000031,501.000000 112.500053,501.000000 1.000060,501.000000 
	C1.000040,334.333405 1.000040,167.666794 1.000020,1.000149 
	C167.666565,1.000100 334.333130,1.000100 500.999756,1.000050 
	C500.999847,167.666519 500.999847,334.333038 500.999939,500.999786 
	C446.166656,501.000000 391.333344,501.000000 336.000000,501.000000 
M272.184387,122.494659 
	C272.184387,122.494659 272.131714,122.209846 272.838501,121.893387 
	C273.888489,121.157478 274.938477,120.421562 276.638428,119.649384 
	C277.409058,119.386383 278.179688,119.123383 279.759766,118.843651 
	C283.754242,118.157593 287.748718,117.471527 291.731293,116.787514 
	C291.731293,114.263817 291.731293,112.136757 291.773468,109.263527 
	C288.499603,109.134659 285.225708,109.005783 281.052277,108.615082 
	C273.532288,108.706276 266.012299,108.797470 257.880646,108.564461 
	C256.761749,108.671837 255.642868,108.779213 253.884811,108.597290 
	C252.734818,108.688019 251.584824,108.778755 250.036911,108.568726 
	C249.577209,108.673630 249.117523,108.778534 247.885056,108.635254 
	C246.272995,108.710068 244.660934,108.784882 242.427582,108.580093 
	C239.053894,107.936623 237.659912,109.550705 237.382599,112.762970 
	C237.230057,114.530098 236.678757,116.262810 235.983749,118.756638 
	C234.963623,122.075111 233.943497,125.393585 232.785843,128.550751 
	C232.785843,128.550751 232.929413,128.715958 232.327148,129.307297 
	C228.559479,139.297531 224.791809,149.287750 220.661316,159.293747 
	C220.661316,159.293747 220.412704,159.556198 220.412704,159.556198 
	C220.412704,159.556198 220.579056,159.877167 220.170883,160.554443 
	C218.467407,165.191879 216.763916,169.829330 214.874207,174.496277 
	C214.874207,174.496277 214.990707,174.396149 214.512955,175.251022 
	C214.361374,175.882751 214.209793,176.514481 213.500946,177.471191 
	C213.304993,178.303558 213.109055,179.135910 212.330200,180.377869 
	C211.710159,182.199539 211.090134,184.021194 210.148438,186.326904 
	C210.075073,186.883820 210.001709,187.440720 209.488602,188.556320 
	C208.002701,192.406891 206.516800,196.257462 204.661453,200.231918 
	C204.661453,200.231918 204.455460,200.560379 204.455460,200.560379 
	C204.455460,200.560379 204.685379,200.872269 204.175049,201.743073 
	C204.094910,202.069824 204.014755,202.396591 203.921143,202.618164 
	C203.921143,202.618164 203.896133,202.492325 203.466629,203.245453 
	C200.358627,211.486664 197.250641,219.727875 193.393600,227.939713 
	C192.898926,227.387680 192.404236,226.835648 191.988113,225.514389 
	C190.765335,222.667480 189.542557,219.820572 188.268677,216.229355 
	C187.754395,214.857422 187.240128,213.485474 186.644775,211.981842 
	C186.644775,211.981842 186.482407,211.752441 186.695557,211.335876 
	C186.443680,210.965851 186.191803,210.595825 185.847061,209.515335 
	C185.440781,208.681503 185.034515,207.847687 184.625259,206.309479 
	C183.724152,204.215881 182.823044,202.122269 181.901154,199.439545 
	C181.628876,198.949249 181.356583,198.458969 181.055969,197.185883 
	C178.989090,191.807602 176.922211,186.429306 174.801529,180.311844 
	C172.042465,173.213394 169.283401,166.114929 166.515884,158.302307 
	C164.062943,152.367599 161.610001,146.432907 159.151703,139.767563 
	C158.850693,139.124908 158.549698,138.482254 158.428604,137.583878 
	C158.353729,137.348236 158.192719,137.237427 157.906754,136.532043 
	C157.228241,135.022736 156.549728,133.513428 155.906937,131.353851 
	C155.577057,130.579391 155.247162,129.804947 154.972214,128.302765 
	C154.187286,126.539429 153.402359,124.776100 152.686539,122.281120 
	C151.128403,118.519188 149.570251,114.757256 148.003052,110.227928 
	C147.014893,109.781654 146.026718,109.335388 144.403000,108.622208 
	C142.582718,108.699181 140.762421,108.776154 138.129486,108.608490 
	C135.900787,108.702217 133.672104,108.795937 130.838196,108.601295 
	C129.749847,108.697235 128.661499,108.793182 126.862846,108.608849 
	C125.350327,108.696312 123.837807,108.783775 122.003159,108.603394 
	C121.693314,108.508469 121.447403,108.594971 120.548737,108.545822 
	C118.517128,108.658890 116.485527,108.771957 113.853104,108.571007 
	C112.747810,108.677727 111.642509,108.784447 109.715324,108.628136 
	C106.493904,108.703087 103.272476,108.778046 99.688812,108.565796 
	C99.108879,108.666512 98.528954,108.767220 97.326424,108.626030 
	C96.897850,108.711113 96.469284,108.796188 95.419197,108.597122 
	C91.374397,107.800720 91.405075,110.482201 91.117653,113.305580 
	C90.706833,117.340981 93.082756,117.621620 96.752991,117.866470 
	C98.909599,118.227119 101.066208,118.587769 103.327316,119.251709 
	C103.327316,119.251709 103.587578,119.436226 103.587578,119.436226 
	C103.587578,119.436226 103.896751,119.358070 104.452713,119.871902 
	C110.143463,122.067001 113.768402,126.131485 115.441376,132.603683 
	C115.773949,133.354218 116.106529,134.104767 116.339455,135.213013 
	C116.275490,135.490082 116.360489,135.709351 116.332787,136.279922 
	C116.576927,136.845306 116.821075,137.410706 116.986137,138.852905 
	C117.003410,140.906052 117.020683,142.959183 116.440010,145.599472 
	C116.512810,176.406006 116.585602,207.212540 116.342621,238.811172 
	C116.311676,240.231949 116.280731,241.652710 115.781029,243.497604 
	C115.709465,244.338196 115.637894,245.178772 115.146011,246.710556 
	C113.712639,250.003189 112.279259,253.295822 110.230934,256.854675 
	C108.780281,257.774414 107.329620,258.694122 105.105644,259.654083 
	C101.074074,260.547363 97.042503,261.440643 92.382942,262.159790 
	C91.750381,262.779541 91.117828,263.399292 90.294693,264.882324 
	C90.294693,266.813019 90.294693,268.743713 90.294693,270.896698 
	C111.566338,270.896698 132.299286,270.896698 153.436493,271.286194 
	C154.250137,271.060089 155.063782,270.833984 156.309570,270.179504 
	C156.237885,269.797272 156.166199,269.415009 156.366943,268.380829 
	C155.933838,266.528259 155.500732,264.675720 154.560013,262.276855 
	C151.355118,261.579803 148.150223,260.882782 144.504562,259.730377 
	C143.663467,259.662140 142.822372,259.593903 141.542877,259.067200 
	C140.980591,258.876953 140.418320,258.686707 139.318512,258.131805 
	C138.544617,257.789032 137.770737,257.446259 136.574081,256.638580 
	C135.669968,255.773087 134.765839,254.907593 133.834869,253.348145 
	C133.028885,251.956558 132.222916,250.564972 131.388992,248.442886 
	C130.971542,247.301041 130.554077,246.159210 130.415375,244.517731 
	C130.246582,244.022766 130.077789,243.527817 129.897095,242.347076 
	C129.802704,241.902313 129.708313,241.457550 129.810471,240.391083 
	C129.512924,239.604141 129.215393,238.817184 128.987274,237.099930 
	C128.827866,218.341995 128.665558,199.584106 128.509918,180.826141 
	C128.374985,164.564484 128.247650,148.302780 128.439484,131.408066 
	C128.720139,130.565964 129.000793,129.723846 129.371429,128.611740 
	C130.165710,129.957428 130.737885,130.926819 131.285965,132.486298 
	C131.556412,132.980835 131.826859,133.475388 132.094070,134.563751 
	C132.443390,135.025787 132.792725,135.487839 133.145874,136.695755 
	C134.770462,140.796967 136.395065,144.898178 137.857498,149.735306 
	C138.562012,151.493942 139.266541,153.252579 140.079269,155.755890 
	C141.553436,159.498154 143.027588,163.240402 144.344589,167.556946 
	C144.826492,168.399673 145.308395,169.242386 145.768906,170.797211 
	C146.237091,171.862915 146.705261,172.928635 147.170837,174.686020 
	C147.773483,176.126709 148.376129,177.567398 149.006485,179.761597 
	C151.377396,185.828979 153.748322,191.896378 156.087524,198.662613 
	C156.749939,200.099274 157.412354,201.535950 158.091507,203.721985 
	C158.836594,205.811020 159.581696,207.900070 160.304413,210.626022 
	C160.909149,211.742188 161.513885,212.858353 162.040131,214.726440 
	C163.136078,217.480713 164.232040,220.235001 165.216858,223.627823 
	C165.655609,224.368561 166.094360,225.109299 166.478577,226.518524 
	C166.806808,227.340546 167.135040,228.162567 167.545868,229.668045 
	C168.422089,231.759811 169.298309,233.851562 170.181198,236.604462 
	C170.543015,237.400070 170.904831,238.195679 171.218750,239.666687 
	C171.798706,240.813919 172.378662,241.961151 172.928665,243.587479 
	C172.928665,243.587479 173.183807,243.994080 173.179321,244.728073 
	C174.190872,247.127823 175.202423,249.527557 176.208298,252.646225 
	C176.905151,254.427567 177.602005,256.208893 178.250381,258.726410 
	C178.940399,260.741791 179.607819,262.765228 180.325119,264.770844 
	C181.806000,268.911377 184.825104,269.677612 189.495850,266.585754 
	C190.074692,264.612396 190.653519,262.639038 191.804489,260.223572 
	C192.643860,257.809174 193.483231,255.394760 194.862061,252.510300 
	C195.295532,251.173416 195.729004,249.836517 196.681320,248.088760 
	C196.993515,247.054703 197.305725,246.020630 198.120224,244.431793 
	C202.392441,233.501694 206.664658,222.571579 211.180450,211.613358 
	C211.180450,211.613358 211.092178,211.269638 211.722748,210.706757 
	C213.807129,205.276123 215.891525,199.845490 218.149124,194.404617 
	C218.149124,194.404617 218.050903,194.582397 218.573090,193.804749 
	C218.787308,192.895813 219.001511,191.986877 219.654892,190.619568 
	C220.235138,189.071365 220.815384,187.523148 221.804459,185.328354 
	C225.849762,175.109818 229.895065,164.891281 234.211807,154.641769 
	C234.211807,154.641769 234.341217,154.403519 234.341217,154.403519 
	C234.341217,154.403519 234.118927,154.249084 234.687164,153.660370 
	C235.759674,150.763840 236.832184,147.867325 238.350845,144.632141 
	C238.430344,144.083008 238.509827,143.533890 239.041855,142.494522 
	C239.049438,142.050919 239.057022,141.607300 239.681290,140.801865 
	C240.137207,139.207169 240.593140,137.612457 241.575485,135.618378 
	C242.010620,134.399033 242.445770,133.179688 243.889862,131.784622 
	C244.163177,133.186401 244.672470,134.587723 244.675171,135.990021 
	C244.737503,168.395554 244.775131,200.801224 244.737213,233.206772 
	C244.729477,239.824875 244.399857,246.442627 243.780350,253.445496 
	C243.594727,253.985443 243.409088,254.525406 242.729065,255.403336 
	C242.468002,255.929001 242.206955,256.454651 241.395905,257.163513 
	C240.923630,257.756775 240.451355,258.350037 239.287537,259.053375 
	C237.860260,259.707336 236.432968,260.361298 234.186264,260.935760 
	C233.130005,261.123077 232.073730,261.310394 230.381958,261.440735 
	C229.606827,261.680450 228.831680,261.920197 227.244690,262.101807 
	C226.167358,262.191345 225.090042,262.280884 223.302078,262.168182 
	C221.996552,262.783875 220.691010,263.399536 219.182678,264.795258 
	C219.254791,265.861420 219.326904,266.927582 219.178543,268.748840 
	C220.636276,272.607056 222.093994,276.465271 223.741928,280.826965 
	C225.430893,281.173645 228.059952,281.593689 230.624802,282.260681 
	C241.125732,284.991699 243.208893,287.744110 243.204636,298.639587 
	C243.195724,321.472321 243.182297,344.305084 243.177231,367.137817 
	C243.173691,383.137421 243.208267,399.137115 243.170364,415.136627 
	C243.154358,421.896179 240.191208,425.240387 233.687775,426.157501 
	C229.964996,426.682495 226.250473,427.265961 222.435333,427.837616 
	C222.435333,430.810028 222.435333,433.394226 222.435333,436.213654 
	C245.369064,436.213654 267.936768,436.213654 290.563965,436.213654 
	C290.563965,433.249084 290.563965,430.637756 290.563965,428.006531 
	C285.986206,426.995544 281.602325,426.148651 277.286194,425.038422 
	C273.353149,424.026764 270.382446,421.751801 269.889954,417.424896 
	C269.480743,413.829773 269.265015,410.194366 269.250763,406.575684 
	C269.185760,390.099701 269.222229,373.623291 269.222229,355.996277 
	C271.181763,357.416595 272.697937,358.188690 273.791534,359.356476 
	C295.123383,382.135986 314.835785,406.225098 331.946655,432.354004 
	C333.965576,435.437012 336.013550,436.589050 339.559906,436.547119 
	C352.057495,436.399231 364.558228,436.526733 377.057770,436.518555 
	C378.503876,436.517609 379.949860,436.320984 381.515656,436.206299 
	C381.515656,433.224548 381.515656,430.653198 381.515656,427.924194 
	C380.443756,427.738007 379.649170,427.527710 378.843781,427.470917 
	C365.987427,426.564148 356.710815,419.579529 348.959412,409.955414 
	C340.145752,399.012360 331.372620,388.035431 322.447632,377.183624 
	C313.412994,366.198486 304.214264,355.348297 295.400726,344.813538 
	C308.426544,330.478210 321.095917,316.088928 334.298584,302.206848 
	C340.265106,295.933289 344.659424,287.625702 353.626221,284.748932 
	C359.528107,282.855408 365.617279,281.545654 371.641235,279.969604 
	C371.641235,277.679932 371.641235,275.088318 371.641235,272.729065 
	C371.228943,272.411560 371.099579,272.224579 370.969299,272.223907 
	C351.479950,272.127380 331.990051,271.979919 312.502411,272.129150 
	C311.394775,272.137634 309.798981,274.431824 309.356873,275.934784 
	C308.950287,277.317108 309.794556,279.067352 310.048553,280.443085 
	C313.559143,281.024231 317.011414,281.453735 320.397705,282.187622 
	C326.359558,283.479706 327.608215,285.661926 325.395081,291.231567 
	C324.368256,293.815704 322.975525,296.328766 321.352844,298.589966 
	C308.513763,316.481445 293.043701,331.905853 276.354950,346.163849 
	C274.332581,347.891663 272.164978,349.449463 269.144958,351.802765 
	C269.144958,331.035919 268.969391,311.771606 269.264923,292.514496 
	C269.341492,287.524689 272.328064,283.869629 277.723267,282.884583 
	C282.044922,282.095459 286.347107,281.199829 290.296967,280.422516 
	C290.815735,276.757172 291.294312,273.375641 291.946136,269.146667 
	C291.946136,266.967438 291.946136,264.788177 291.946136,262.134003 
	C289.448273,262.134003 287.704010,262.134003 285.683563,261.770020 
	C285.091797,261.761810 284.500061,261.753632 283.489441,261.426270 
	C282.752075,261.308380 282.014709,261.190491 280.906281,260.533752 
	C278.954895,259.992981 277.003510,259.452240 275.023285,258.996033 
	C275.023285,258.996033 275.091064,258.937866 274.773193,258.370605 
	C273.530243,257.208771 272.287292,256.046906 271.036499,254.382751 
	C270.924042,254.258667 270.811615,254.134583 270.717377,253.454376 
	C270.440491,252.983002 270.163635,252.511612 269.920258,251.098373 
	C269.886871,210.052155 269.853516,169.005936 270.224243,127.415367 
	C270.733215,125.915878 271.242188,124.416382 272.027496,122.742226 
	C272.027496,122.742226 271.959015,122.422592 272.184387,122.494659 
z"/>
<path fill="#FEFEFE" opacity="1.000000" stroke="none" 
	d="
M131.443405,108.889656 
	C133.672104,108.795937 135.900787,108.702217 138.772644,109.030151 
	C141.290054,109.264244 143.164307,109.076683 145.038559,108.889114 
	C146.026718,109.335388 147.014893,109.781654 147.737091,110.830475 
	C149.186569,115.292938 150.902008,119.152847 152.617432,123.012764 
	C153.402359,124.776100 154.187286,126.539429 154.704193,128.864990 
	C154.914536,130.286194 155.392868,131.145157 155.871216,132.004120 
	C156.549728,133.513428 157.228241,135.022736 157.950562,137.001892 
	C157.994354,137.471741 158.248688,137.839600 158.248688,137.839600 
	C158.549698,138.482254 158.850693,139.124908 159.107666,140.513275 
	C160.793533,146.854080 162.476151,152.464951 164.331131,158.018250 
	C164.504486,158.537277 165.767319,158.692398 166.524323,159.016479 
	C169.283401,166.114929 172.042465,173.213394 174.580551,180.931366 
	C174.260910,182.191849 173.934036,182.899948 174.099762,183.463089 
	C175.406967,187.904984 176.711929,192.353958 178.281876,196.705383 
	C178.523880,197.376190 180.116379,197.559769 181.084305,197.968674 
	C181.356583,198.458969 181.628876,198.949249 181.654327,199.977570 
	C180.393463,203.716370 181.213516,206.008118 184.628250,207.013855 
	C185.034515,207.847687 185.440781,208.681503 185.979416,210.269852 
	C186.235321,211.267075 186.358856,211.509766 186.482407,211.752441 
	C186.482407,211.752441 186.644775,211.981842 186.481903,212.475311 
	C186.985947,214.303726 187.652847,215.638702 188.319763,216.973663 
	C189.542557,219.820572 190.765335,222.667480 191.958801,226.227875 
	C192.220871,227.830032 192.512253,228.718719 192.803650,229.607391 
	C193.249985,229.061295 193.696304,228.515182 194.142639,227.969086 
	C197.250641,219.727875 200.358627,211.486664 203.683380,202.906876 
	C203.900116,202.568298 203.934616,202.723343 203.934616,202.723343 
	C204.014755,202.396591 204.094910,202.069824 204.527893,201.201797 
	C204.983810,200.490784 205.033875,200.306625 205.030914,200.108032 
	C206.516800,196.257462 208.002701,192.406891 210.033752,188.237808 
	C210.542648,187.227158 210.506378,186.535004 210.470108,185.842865 
	C211.090134,184.021194 211.710159,182.199539 212.924316,180.159668 
	C213.698364,179.009705 213.878296,178.077957 214.058228,177.146210 
	C214.209793,176.514481 214.361374,175.882751 214.738174,174.857635 
	C214.963394,174.464264 215.060440,174.466782 215.060425,174.466782 
	C216.763916,169.829330 218.467407,165.191879 220.488586,160.152588 
	C220.931320,159.617340 221.003937,159.459747 221.024155,159.277985 
	C224.791809,149.287750 228.559479,139.297531 232.616760,129.007263 
	C232.906372,128.707245 232.923386,128.712067 232.923370,128.712067 
	C233.943497,125.393585 234.963623,122.075111 236.492371,118.298073 
	C237.640823,116.770546 238.969315,115.574196 238.799316,114.655045 
	C238.122864,110.997993 240.800095,110.159950 243.048874,108.859703 
	C244.660934,108.784882 246.272995,108.710068 248.716248,108.788086 
	C249.843231,108.917107 250.139038,108.893295 250.434830,108.869476 
	C251.584824,108.778755 252.734818,108.688019 254.700928,108.794121 
	C256.508789,108.956856 257.500549,108.922760 258.492310,108.888664 
	C266.012299,108.797470 273.532288,108.706276 281.769836,109.055054 
	C285.568665,109.666588 288.649994,109.838150 291.731293,110.009705 
	C291.731293,112.136757 291.731293,114.263817 291.731293,116.787514 
	C287.748718,117.471527 283.754242,118.157593 279.162476,118.623283 
	C277.706299,118.830505 276.847382,119.258087 275.988495,119.685654 
	C274.938477,120.421562 273.888489,121.157478 272.449127,122.080124 
	C272.059753,122.266861 271.959015,122.422592 271.959015,122.422592 
	C271.959015,122.422592 272.027496,122.742226 271.559967,122.917892 
	C270.381714,124.721794 269.671021,126.350029 268.568237,127.995926 
	C267.117523,130.122894 265.132141,132.234528 265.137451,134.341141 
	C265.236664,173.677170 265.816467,213.014099 265.573120,252.346375 
	C265.539856,257.720642 266.835052,258.349304 271.330505,258.141571 
	C272.801941,258.502197 273.946503,258.720032 275.091064,258.937866 
	C275.091064,258.937866 275.023285,258.996033 275.065063,259.284821 
	C276.072052,260.714508 277.037262,261.855438 277.942871,263.353638 
	C276.200043,264.286530 274.534607,265.276855 272.829834,265.349945 
	C269.453064,265.494751 266.014893,264.747101 262.676422,265.090576 
	C259.420685,265.425507 256.195618,267.507874 253.070480,267.278503 
	C249.526718,267.018372 250.105591,268.805481 249.567596,270.823669 
	C247.090286,270.844818 245.045334,270.788055 242.993347,270.381470 
	C241.657135,267.686981 240.327957,265.342255 239.031952,262.648071 
	C239.369766,261.180176 239.674438,260.061768 239.979095,258.943329 
	C240.451355,258.350037 240.923630,257.756775 241.958801,257.062378 
	C242.755600,256.329285 242.989532,255.697327 243.223450,255.065353 
	C243.409088,254.525406 243.594727,253.985443 244.377625,253.128937 
	C245.319717,250.942291 245.962036,249.072723 245.965271,247.202057 
	C246.026138,211.982040 246.005386,176.761871 246.031143,141.541763 
	C246.032349,139.905304 246.286957,138.266800 246.460846,136.633240 
	C246.683502,134.541489 247.133560,132.445175 247.039307,130.371109 
	C247.018768,129.919357 245.061539,129.178406 244.089142,129.301880 
	C243.582047,129.366272 243.277145,131.022903 242.880920,131.960358 
	C242.445770,133.179688 242.010620,134.399033 240.931458,135.884094 
	C239.879807,137.821091 239.472198,139.492401 239.064606,141.163696 
	C239.057022,141.607300 239.049438,142.050919 238.556122,142.782608 
	C238.015137,143.704056 237.959915,144.337433 237.904694,144.970795 
	C236.832184,147.867325 235.759674,150.763840 234.356155,154.017212 
	C234.025146,154.374069 233.940384,154.672745 233.940369,154.672745 
	C229.895065,164.891281 225.849762,175.109818 221.267639,185.672028 
	C218.519333,187.192383 217.002991,188.577118 219.215729,191.077927 
	C219.001511,191.986877 218.787308,192.895813 218.319275,194.154388 
	C218.065475,194.504013 217.975906,194.414856 217.975906,194.414856 
	C215.891525,199.845490 213.807129,205.276123 211.367691,211.043732 
	C211.012634,211.380692 210.936859,211.641464 210.936859,211.641464 
	C206.664658,222.571579 202.392441,233.501694 197.526917,244.814575 
	C196.676575,246.298111 196.419525,247.398865 196.162476,248.499619 
	C195.729004,249.836517 195.295532,251.173416 194.287155,252.876526 
	C192.885620,255.717072 192.058990,258.191376 191.232361,260.665680 
	C190.653519,262.639038 190.074692,264.612396 188.882507,266.810089 
	C186.627411,266.224091 184.662140,265.744415 183.418198,264.527466 
	C181.456985,262.608765 179.980515,260.194641 178.298843,257.990234 
	C177.602005,256.208893 176.905151,254.427567 176.426132,252.049316 
	C175.490585,248.966293 174.337204,246.480179 173.183807,243.994080 
	C173.183807,243.994080 172.928665,243.587479 172.965271,242.979935 
	C172.423462,241.245361 171.845047,240.118317 171.266647,238.991287 
	C170.904831,238.195679 170.543015,237.400070 170.449005,236.122711 
	C172.471603,232.034378 169.052032,230.956924 167.463287,228.984589 
	C167.135040,228.162567 166.806808,227.340546 166.627365,225.825531 
	C166.293442,224.418106 165.810715,223.703690 165.327988,222.989273 
	C164.232040,220.235001 163.136078,217.480713 162.366089,214.311646 
	C161.903641,212.594254 161.115204,211.291687 160.326782,209.989105 
	C159.581696,207.900070 158.836594,205.811020 158.332108,203.131531 
	C157.754883,201.015289 156.937073,199.489532 156.119247,197.963760 
	C153.748322,191.896378 151.377396,185.828979 149.242188,179.186829 
	C148.709747,177.072815 147.941605,175.533569 147.173447,173.994339 
	C146.705261,172.928635 146.237091,171.862915 146.038483,170.295761 
	C145.705948,168.857101 145.103851,167.919876 144.501755,166.982666 
	C143.027588,163.240402 141.553436,159.498154 140.302368,155.146759 
	C141.340210,151.945007 141.572113,149.616058 138.019653,148.999390 
	C136.395065,144.898178 134.770462,140.796967 133.350769,136.145401 
	C133.069534,135.053345 132.583435,134.511627 132.097321,133.969925 
	C131.826859,133.475388 131.556412,132.980835 131.494156,131.945877 
	C131.061142,129.635086 130.419952,127.864708 129.778748,126.094337 
	C129.094299,126.210335 128.409851,126.326324 127.725403,126.442314 
	C127.855919,128.308578 127.986443,130.174835 128.116959,132.041092 
	C128.247650,148.302780 128.374985,164.564484 128.509918,180.826141 
	C128.665558,199.584106 128.827866,218.341995 128.716141,237.748047 
	C128.834641,239.268372 129.224289,240.140579 129.613922,241.012787 
	C129.708313,241.457550 129.802704,241.902313 129.705750,242.811615 
	C129.721802,243.856552 129.929214,244.436951 130.136612,245.017365 
	C130.554077,246.159210 130.971542,247.301041 131.277954,249.242813 
	C130.839050,252.202026 130.854736,254.129837 133.861710,254.042099 
	C134.765839,254.907593 135.669968,255.773087 136.879700,257.245422 
	C138.075546,258.066956 138.965805,258.281708 139.856049,258.496429 
	C140.418320,258.686707 140.980591,258.876953 141.835785,259.572937 
	C143.067566,260.114380 144.006454,260.150055 144.945328,260.185730 
	C148.150223,260.882782 151.355118,261.579803 154.793060,262.970947 
	C155.382248,265.454285 155.738373,267.243530 156.094482,269.032776 
	C156.166199,269.415009 156.237885,269.797272 155.731110,270.234375 
	C154.445847,270.491730 153.739044,270.694214 153.032227,270.896698 
	C132.299286,270.896698 111.566338,270.896698 90.294693,270.896698 
	C90.294693,268.743713 90.294693,266.813019 90.683708,264.449341 
	C91.718796,263.455536 92.364868,262.894714 93.010941,262.333923 
	C97.042503,261.440643 101.074074,260.547363 105.553299,260.000793 
	C108.761559,262.081940 109.449242,261.548401 110.845886,256.588470 
	C112.279259,253.295822 113.712639,250.003189 115.627701,246.290924 
	C116.156197,244.938705 116.202988,244.006088 116.249786,243.073486 
	C116.280731,241.652710 116.311676,240.231949 116.833176,238.244003 
	C117.550850,236.578384 117.974884,235.480194 117.976295,234.381454 
	C118.012817,205.986603 118.019028,177.591644 117.964340,149.196854 
	C117.961655,147.801422 117.360451,146.407150 117.037956,145.012329 
	C117.020683,142.959183 117.003410,140.906052 117.252457,138.227478 
	C117.210663,137.024963 116.902557,136.447891 116.594452,135.870819 
	C116.360489,135.709351 116.275490,135.490082 116.541428,134.690918 
	C116.300636,133.441238 115.857872,132.713669 115.415100,131.986115 
	C113.768402,126.131485 110.143463,122.067001 104.086449,119.512451 
	C103.573708,119.037872 103.407921,118.969681 103.222816,118.948418 
	C101.066208,118.587769 98.909599,118.227119 96.325348,117.363495 
	C94.781754,115.577957 93.665810,114.295403 91.190880,111.450951 
	C92.864853,110.563988 94.452774,109.722626 96.040710,108.881264 
	C96.469284,108.796188 96.897850,108.711113 97.787247,108.994972 
	C98.849060,109.193611 99.450058,109.023300 100.051056,108.852997 
	C103.272476,108.778046 106.493904,108.703087 110.617355,108.809860 
	C112.497566,108.956062 113.475739,108.920547 114.453918,108.885033 
	C116.485527,108.771957 118.517128,108.658890 121.080513,108.755592 
	C121.612289,108.965363 121.975395,108.968391 121.975395,108.968391 
	C121.975395,108.968391 122.325287,108.871231 122.325287,108.871231 
	C123.837807,108.783775 125.350327,108.696312 127.701981,108.801582 
	C129.508545,108.959435 130.475967,108.924545 131.443405,108.889656 
M106.483025,263.587219 
	C106.483025,263.587219 106.417297,263.476868 106.483025,263.587219 
M171.517288,178.411880 
	C171.517288,178.411880 171.583694,178.523010 171.517288,178.411880 
M208.521591,212.402817 
	C208.521591,212.402817 208.597702,212.523911 208.521591,212.402817 
M194.482773,246.589081 
	C194.482773,246.589081 194.415543,246.476868 194.482773,246.589081 
z"/>
<path fill="#F8F7F7" opacity="1.000000" stroke="none" 
	d="
M291.772888,269.994110 
	C291.294312,273.375641 290.815735,276.757172 290.296967,280.422516 
	C286.347107,281.199829 282.044922,282.095459 277.723267,282.884583 
	C272.328064,283.869629 269.341492,287.524689 269.264923,292.514496 
	C268.969391,311.771606 269.144958,331.035919 269.144958,351.802765 
	C272.164978,349.449463 274.332581,347.891663 276.354950,346.163849 
	C293.043701,331.905853 308.513763,316.481445 321.352844,298.589966 
	C322.975525,296.328766 324.368256,293.815704 325.395081,291.231567 
	C327.608215,285.661926 326.359558,283.479706 320.397705,282.187622 
	C317.011414,281.453735 313.559143,281.024231 310.048553,280.443085 
	C309.794556,279.067352 308.950287,277.317108 309.356873,275.934784 
	C309.798981,274.431824 311.394775,272.137634 312.502411,272.129150 
	C331.990051,271.979919 351.479950,272.127380 370.969299,272.223907 
	C371.099579,272.224579 371.228943,272.411560 371.641235,272.729065 
	C371.641235,275.088318 371.641235,277.679932 371.641235,279.969604 
	C365.617279,281.545654 359.528107,282.855408 353.626221,284.748932 
	C344.659424,287.625702 340.265106,295.933289 334.298584,302.206848 
	C321.095917,316.088928 308.426544,330.478210 295.400726,344.813538 
	C304.214264,355.348297 313.412994,366.198486 322.447632,377.183624 
	C331.372620,388.035431 340.145752,399.012360 348.959412,409.955414 
	C356.710815,419.579529 365.987427,426.564148 378.843781,427.470917 
	C379.649170,427.527710 380.443756,427.738007 381.515656,427.924194 
	C381.515656,430.653198 381.515656,433.224548 381.515656,436.206299 
	C379.949860,436.320984 378.503876,436.517609 377.057770,436.518555 
	C364.558228,436.526733 352.057495,436.399231 339.559906,436.547119 
	C336.013550,436.589050 333.965576,435.437012 331.946655,432.354004 
	C314.835785,406.225098 295.123383,382.135986 273.791534,359.356476 
	C272.697937,358.188690 271.181763,357.416595 269.222229,355.996277 
	C269.222229,373.623291 269.185760,390.099701 269.250763,406.575684 
	C269.265015,410.194366 269.480743,413.829773 269.889954,417.424896 
	C270.382446,421.751801 273.353149,424.026764 277.286194,425.038422 
	C281.602325,426.148651 285.986206,426.995544 290.563965,428.006531 
	C290.563965,430.637756 290.563965,433.249084 290.563965,436.213654 
	C267.936768,436.213654 245.369064,436.213654 222.435333,436.213654 
	C222.435333,433.394226 222.435333,430.810028 222.435333,427.837616 
	C226.250473,427.265961 229.964996,426.682495 233.687775,426.157501 
	C240.191208,425.240387 243.154358,421.896179 243.170364,415.136627 
	C243.208267,399.137115 243.173691,383.137421 243.177231,367.137817 
	C243.182297,344.305084 243.195724,321.472321 243.204636,298.639587 
	C243.208893,287.744110 241.125732,284.991699 230.624802,282.260681 
	C228.059952,281.593689 225.430893,281.173645 223.741928,280.826965 
	C222.093994,276.465271 220.636276,272.607056 219.647675,268.438660 
	C222.418457,268.749054 224.699692,269.464996 227.027527,269.963257 
	C229.345657,270.459473 231.710556,270.737183 234.338074,271.422058 
	C248.173218,271.846832 261.725189,271.971802 275.277435,272.032257 
	C275.831390,272.034729 276.388031,271.430176 277.167694,270.812256 
	C282.185608,270.342133 286.979248,270.168121 291.772888,269.994110 
z"/>
<path fill="#FFFEFC" opacity="1.000000" stroke="none" 
	d="
M271.003662,257.998779 
	C266.835052,258.349304 265.539856,257.720642 265.573120,252.346375 
	C265.816467,213.014099 265.236664,173.677170 265.137451,134.341141 
	C265.132141,132.234528 267.117523,130.122894 268.783691,128.002289 
	C269.391174,127.990990 269.820129,127.959724 269.820129,127.959724 
	C269.853516,169.005936 269.886871,210.052155 269.695435,251.729095 
	C269.880096,252.910049 270.289642,253.460281 270.699158,254.010513 
	C270.811615,254.134583 270.924042,254.258667 271.017914,255.022644 
	C271.000763,256.441284 271.002228,257.220032 271.003662,257.998779 
z"/>
<path fill="#F8F7F7" opacity="1.000000" stroke="none" 
	d="
M243.385391,131.872498 
	C243.277145,131.022903 243.582047,129.366272 244.089142,129.301880 
	C245.061539,129.178406 247.018768,129.919357 247.039307,130.371109 
	C247.133560,132.445175 246.683502,134.541489 246.460846,136.633240 
	C246.286957,138.266800 246.032349,139.905304 246.031143,141.541763 
	C246.005386,176.761871 246.026138,211.982040 245.965271,247.202057 
	C245.962036,249.072723 245.319717,250.942291 244.596771,252.936447 
	C244.399857,246.442627 244.729477,239.824875 244.737213,233.206772 
	C244.775131,200.801224 244.737503,168.395554 244.675171,135.990021 
	C244.672470,134.587723 244.163177,133.186401 243.385391,131.872498 
z"/>
<path fill="#FEFEFE" opacity="1.000000" stroke="none" 
	d="
M291.859528,269.570374 
	C286.979248,270.168121 282.185608,270.342133 276.703583,270.783539 
	C267.343475,270.949219 258.671692,270.847504 249.999939,270.745758 
	C250.105591,268.805481 249.526718,267.018372 253.070480,267.278503 
	C256.195618,267.507874 259.420685,265.425507 262.676422,265.090576 
	C266.014893,264.747101 269.453064,265.494751 272.829834,265.349945 
	C274.534607,265.276855 276.200043,264.286530 278.364807,263.336426 
	C279.656647,262.332123 280.466980,261.702362 281.277344,261.072632 
	C282.014709,261.190491 282.752075,261.308380 283.815247,261.843933 
	C284.747284,262.219055 285.353516,262.176514 285.959717,262.133972 
	C287.704010,262.134003 289.448273,262.134003 291.946136,262.134003 
	C291.946136,264.788177 291.946136,266.967438 291.859528,269.570374 
z"/>
<path fill="#F8F7F7" opacity="1.000000" stroke="none" 
	d="
M116.738983,145.305908 
	C117.360451,146.407150 117.961655,147.801422 117.964340,149.196854 
	C118.019028,177.591644 118.012817,205.986603 117.976295,234.381454 
	C117.974884,235.480194 117.550850,236.578384 116.991074,237.847961 
	C116.585602,207.212540 116.512810,176.406006 116.738983,145.305908 
z"/>
<path fill="#FEFEFE" opacity="1.000000" stroke="none" 
	d="
M234.054962,271.110657 
	C231.710556,270.737183 229.345657,270.459473 227.027527,269.963257 
	C224.699692,269.464996 222.418457,268.749054 219.757904,268.061096 
	C219.326904,266.927582 219.254791,265.861420 219.636292,264.408142 
	C221.397491,263.470825 222.705109,262.920624 224.012711,262.370422 
	C225.090042,262.280884 226.167358,262.191345 227.833725,262.354980 
	C229.287659,262.237976 230.152557,261.867828 231.017471,261.497711 
	C232.073730,261.310394 233.130005,261.123077 234.789261,261.233398 
	C236.594437,262.019867 237.796600,262.508728 238.998779,262.997559 
	C240.327957,265.342255 241.657135,267.686981 242.550842,270.460327 
	C239.428558,270.962860 236.741760,271.036774 234.054962,271.110657 
z"/>
<path fill="#F8F7F7" opacity="1.000000" stroke="none" 
	d="
M166.520111,158.659393 
	C165.767319,158.692398 164.504486,158.537277 164.331131,158.018250 
	C162.476151,152.464951 160.793533,146.854080 159.110352,140.878601 
	C161.610001,146.432907 164.062943,152.367599 166.520111,158.659393 
z"/>
<path fill="#F8F7F7" opacity="1.000000" stroke="none" 
	d="
M181.070129,197.577271 
	C180.116379,197.559769 178.523880,197.376190 178.281876,196.705383 
	C176.711929,192.353958 175.406967,187.904984 174.099762,183.463089 
	C173.934036,182.899948 174.260910,182.191849 174.607452,181.300964 
	C176.922211,186.429306 178.989090,191.807602 181.070129,197.577271 
z"/>
<path fill="#F8F7F7" opacity="1.000000" stroke="none" 
	d="
M178.274612,258.358337 
	C179.980515,260.194641 181.456985,262.608765 183.418198,264.527466 
	C184.662140,265.744415 186.627411,266.224091 188.599121,267.005463 
	C184.825104,269.677612 181.806000,268.911377 180.325119,264.770844 
	C179.607819,262.765228 178.940399,260.741791 178.274612,258.358337 
z"/>
<path fill="#F8F7F7" opacity="1.000000" stroke="none" 
	d="
M95.729950,108.739197 
	C94.452774,109.722626 92.864853,110.563988 91.190880,111.450951 
	C93.665810,114.295403 94.781754,115.577957 95.959183,117.159515 
	C93.082756,117.621620 90.706833,117.340981 91.117653,113.305580 
	C91.405075,110.482201 91.374397,107.800720 95.729950,108.739197 
z"/>
<path fill="#F8F7F7" opacity="1.000000" stroke="none" 
	d="
M242.738220,108.719894 
	C240.800095,110.159950 238.122864,110.997993 238.799316,114.655045 
	C238.969315,115.574196 237.640823,116.770546 236.654114,117.925270 
	C236.678757,116.262810 237.230057,114.530098 237.382599,112.762970 
	C237.659912,109.550705 239.053894,107.936623 242.738220,108.719894 
z"/>
<path fill="#F8F7F7" opacity="1.000000" stroke="none" 
	d="
M152.651978,122.646942 
	C150.902008,119.152847 149.186569,115.292938 147.741623,111.214172 
	C149.570251,114.757256 151.128403,118.519188 152.651978,122.646942 
z"/>
<path fill="#F8F7F7" opacity="1.000000" stroke="none" 
	d="
M128.278229,131.724579 
	C127.986443,130.174835 127.855919,128.308578 127.725403,126.442314 
	C128.409851,126.326324 129.094299,126.210335 129.778748,126.094337 
	C130.419952,127.864708 131.061142,129.635086 131.506195,131.650818 
	C130.737885,130.926819 130.165710,129.957428 129.371429,128.611740 
	C129.000793,129.723846 128.720139,130.565964 128.278229,131.724579 
z"/>
<path fill="#F8F7F7" opacity="1.000000" stroke="none" 
	d="
M291.752380,109.636612 
	C288.649994,109.838150 285.568665,109.666588 282.219604,109.185974 
	C285.225708,109.005783 288.499603,109.134659 291.752380,109.636612 
z"/>
<path fill="#F8F7F7" opacity="1.000000" stroke="none" 
	d="
M184.626755,206.661667 
	C181.213516,206.008118 180.393463,203.716370 181.664703,200.272125 
	C182.823044,202.122269 183.724152,204.215881 184.626755,206.661667 
z"/>
<path fill="#F8F7F7" opacity="1.000000" stroke="none" 
	d="
M167.504578,229.326324 
	C169.052032,230.956924 172.471603,232.034378 170.445679,235.792145 
	C169.298309,233.851562 168.422089,231.759811 167.504578,229.326324 
z"/>
<path fill="#F8F7F7" opacity="1.000000" stroke="none" 
	d="
M110.538406,256.721558 
	C109.449242,261.548401 108.761559,262.081940 105.939964,259.980652 
	C107.329620,258.694122 108.780281,257.774414 110.538406,256.721558 
z"/>
<path fill="#F8F7F7" opacity="1.000000" stroke="none" 
	d="
M173.181564,244.361084 
	C174.337204,246.480179 175.490585,248.966293 176.428970,251.689850 
	C175.202423,249.527557 174.190872,247.127823 173.181564,244.361084 
z"/>
<path fill="#F8F7F7" opacity="1.000000" stroke="none" 
	d="
M137.938568,149.367340 
	C141.572113,149.616058 141.340210,151.945007 140.248260,154.774429 
	C139.266541,153.252579 138.562012,151.493942 137.938568,149.367340 
z"/>
<path fill="#F8F7F7" opacity="1.000000" stroke="none" 
	d="
M281.091797,260.803192 
	C280.466980,261.702362 279.656647,262.332123 278.424377,262.979126 
	C277.037262,261.855438 276.072052,260.714508 275.079468,259.242554 
	C277.003510,259.452240 278.954895,259.992981 281.091797,260.803192 
z"/>
<path fill="#F8F7F7" opacity="1.000000" stroke="none" 
	d="
M191.518433,260.444641 
	C192.058990,258.191376 192.885620,255.717072 194.017426,253.111572 
	C193.483231,255.394760 192.643860,257.809174 191.518433,260.444641 
z"/>
<path fill="#F8F7F7" opacity="1.000000" stroke="none" 
	d="
M219.435303,190.848755 
	C217.002991,188.577118 218.519333,187.192383 221.063217,185.995316 
	C220.815384,187.523148 220.235138,189.071365 219.435303,190.848755 
z"/>
<path fill="#F8F7F7" opacity="1.000000" stroke="none" 
	d="
M239.031952,262.648071 
	C237.796600,262.508728 236.594437,262.019867 235.198975,261.273132 
	C236.432968,260.361298 237.860260,259.707336 239.633331,258.998352 
	C239.674438,260.061768 239.369766,261.180176 239.031952,262.648071 
z"/>
<path fill="#F8F7F7" opacity="1.000000" stroke="none" 
	d="
M144.720779,108.755661 
	C143.164307,109.076683 141.290054,109.264244 139.178970,109.152466 
	C140.762421,108.776154 142.582718,108.699181 144.720779,108.755661 
z"/>
<path fill="#F8F7F7" opacity="1.000000" stroke="none" 
	d="
M156.230713,268.706787 
	C155.738373,267.243530 155.382248,265.454285 155.046875,263.244080 
	C155.500732,264.675720 155.933838,266.528259 156.230713,268.706787 
z"/>
<path fill="#F8F7F7" opacity="1.000000" stroke="none" 
	d="
M156.103394,198.313187 
	C156.937073,199.489532 157.754883,201.015289 158.323730,202.756836 
	C157.412354,201.535950 156.749939,200.099274 156.103394,198.313187 
z"/>
<path fill="#F8F7F7" opacity="1.000000" stroke="none" 
	d="
M223.657394,262.269287 
	C222.705109,262.920624 221.397491,263.470825 219.737671,264.018127 
	C220.691010,263.399536 221.996552,262.783875 223.657394,262.269287 
z"/>
<path fill="#F8F7F7" opacity="1.000000" stroke="none" 
	d="
M147.172150,174.340179 
	C147.941605,175.533569 148.709747,177.072815 149.228333,178.810059 
	C148.376129,177.567398 147.773483,176.126709 147.172150,174.340179 
z"/>
<path fill="#F8F7F7" opacity="1.000000" stroke="none" 
	d="
M160.315598,210.307556 
	C161.115204,211.291687 161.903641,212.594254 162.405334,213.935669 
	C161.513885,212.858353 160.909149,211.742188 160.315598,210.307556 
z"/>
<path fill="#F8F7F7" opacity="1.000000" stroke="none" 
	d="
M270.022186,127.687546 
	C269.820129,127.959724 269.391174,127.990990 269.175720,127.984627 
	C269.671021,126.350029 270.381714,124.721794 271.421814,123.005219 
	C271.242188,124.416382 270.733215,125.915878 270.022186,127.687546 
z"/>
<path fill="#F8F7F7" opacity="1.000000" stroke="none" 
	d="
M271.330505,258.141571 
	C271.002228,257.220032 271.000763,256.441284 271.021851,255.273804 
	C272.287292,256.046906 273.530243,257.208771 274.932129,258.654236 
	C273.946503,258.720032 272.801941,258.502197 271.330505,258.141571 
z"/>
<path fill="#F8F7F7" opacity="1.000000" stroke="none" 
	d="
M239.372955,140.982788 
	C239.472198,139.492401 239.879807,137.821091 240.668243,136.083771 
	C240.593140,137.612457 240.137207,139.207169 239.372955,140.982788 
z"/>
<path fill="#F8F7F7" opacity="1.000000" stroke="none" 
	d="
M133.848297,253.695129 
	C130.854736,254.129837 130.839050,252.202026 131.291931,249.608063 
	C132.222916,250.564972 133.028885,251.956558 133.848297,253.695129 
z"/>
<path fill="#F8F7F7" opacity="1.000000" stroke="none" 
	d="
M188.294220,216.601501 
	C187.652847,215.638702 186.985947,214.303726 186.522430,212.541153 
	C187.240128,213.485474 187.754395,214.857422 188.294220,216.601501 
z"/>
<path fill="#F8F7F7" opacity="1.000000" stroke="none" 
	d="
M171.242706,239.328979 
	C171.845047,240.118317 172.423462,241.245361 172.980240,242.740387 
	C172.378662,241.961151 171.798706,240.813919 171.242706,239.328979 
z"/>
<path fill="#F8F7F7" opacity="1.000000" stroke="none" 
	d="
M144.423172,167.269806 
	C145.103851,167.919876 145.705948,168.857101 146.049164,169.939713 
	C145.308395,169.242386 144.826492,168.399673 144.423172,167.269806 
z"/>
<path fill="#F8F7F7" opacity="1.000000" stroke="none" 
	d="
M193.768127,227.954407 
	C193.696304,228.515182 193.249985,229.061295 192.803650,229.607391 
	C192.512253,228.718719 192.220871,227.830032 191.919525,226.612488 
	C192.404236,226.835648 192.898926,227.387680 193.768127,227.954407 
z"/>
<path fill="#F8F7F7" opacity="1.000000" stroke="none" 
	d="
M230.699707,261.469238 
	C230.152557,261.867828 229.287659,262.237976 228.239655,262.384033 
	C228.831680,261.920197 229.606827,261.680450 230.699707,261.469238 
z"/>
<path fill="#F8F7F7" opacity="1.000000" stroke="none" 
	d="
M129.712189,240.701935 
	C129.224289,240.140579 128.834641,239.268372 128.681427,238.213196 
	C129.215393,238.817184 129.512924,239.604141 129.712189,240.701935 
z"/>
<path fill="#F8F7F7" opacity="1.000000" stroke="none" 
	d="
M116.015404,243.285553 
	C116.202988,244.006088 116.156197,244.938705 115.837860,245.945343 
	C115.637894,245.178772 115.709465,244.338196 116.015404,243.285553 
z"/>
<path fill="#F8F7F7" opacity="1.000000" stroke="none" 
	d="
M144.724945,259.958069 
	C144.006454,260.150055 143.067566,260.114380 142.054993,259.802185 
	C142.822372,259.593903 143.663467,259.662140 144.724945,259.958069 
z"/>
<path fill="#F8F7F7" opacity="1.000000" stroke="none" 
	d="
M276.313477,119.667526 
	C276.847382,119.258087 277.706299,118.830505 278.757751,118.631653 
	C278.179688,119.123383 277.409058,119.386383 276.313477,119.667526 
z"/>
<path fill="#F8F7F7" opacity="1.000000" stroke="none" 
	d="
M92.696945,262.246857 
	C92.364868,262.894714 91.718796,263.455536 90.778992,264.017700 
	C91.117828,263.399292 91.750381,262.779541 92.696945,262.246857 
z"/>
<path fill="#F8F7F7" opacity="1.000000" stroke="none" 
	d="
M155.889069,131.678986 
	C155.392868,131.145157 154.914536,130.286194 154.676727,129.228851 
	C155.247162,129.804947 155.577057,130.579391 155.889069,131.678986 
z"/>
<path fill="#F8F7F7" opacity="1.000000" stroke="none" 
	d="
M196.421890,248.294189 
	C196.419525,247.398865 196.676575,246.298111 197.275787,245.091965 
	C197.305725,246.020630 196.993515,247.054703 196.421890,248.294189 
z"/>
<path fill="#F8F7F7" opacity="1.000000" stroke="none" 
	d="
M213.779587,177.308701 
	C213.878296,178.077957 213.698364,179.009705 213.215775,179.954865 
	C213.109055,179.135910 213.304993,178.303558 213.779587,177.308701 
z"/>
<path fill="#F8F7F7" opacity="1.000000" stroke="none" 
	d="
M210.309265,186.084885 
	C210.506378,186.535004 210.542648,187.227158 210.253632,187.958466 
	C210.001709,187.440720 210.075073,186.883820 210.309265,186.084885 
z"/>
<path fill="#F8F7F7" opacity="1.000000" stroke="none" 
	d="
M242.976257,255.234344 
	C242.989532,255.697327 242.755600,256.329285 242.233795,256.970764 
	C242.206955,256.454651 242.468002,255.929001 242.976257,255.234344 
z"/>
<path fill="#F8F7F7" opacity="1.000000" stroke="none" 
	d="
M116.463623,136.075378 
	C116.902557,136.447891 117.210663,137.024963 117.291992,137.789062 
	C116.821075,137.410706 116.576927,136.845306 116.463623,136.075378 
z"/>
<path fill="#F8F7F7" opacity="1.000000" stroke="none" 
	d="
M238.127777,144.801468 
	C237.959915,144.337433 238.015137,143.704056 238.329849,143.027725 
	C238.509827,143.533890 238.430344,144.083008 238.127777,144.801468 
z"/>
<path fill="#F8F7F7" opacity="1.000000" stroke="none" 
	d="
M270.708252,253.732452 
	C270.289642,253.460281 269.880096,252.910049 269.678650,252.200043 
	C270.163635,252.511612 270.440491,252.983002 270.708252,253.732452 
z"/>
<path fill="#F8F7F7" opacity="1.000000" stroke="none" 
	d="
M139.587280,258.314117 
	C138.965805,258.281708 138.075546,258.066956 137.091064,257.477844 
	C137.770737,257.446259 138.544617,257.789032 139.587280,258.314117 
z"/>
<path fill="#F8F7F7" opacity="1.000000" stroke="none" 
	d="
M132.095703,134.266846 
	C132.583435,134.511627 133.069534,135.053345 133.348846,135.772461 
	C132.792725,135.487839 132.443390,135.025787 132.095703,134.266846 
z"/>
<path fill="#F8F7F7" opacity="1.000000" stroke="none" 
	d="
M115.428238,132.294891 
	C115.857872,132.713669 116.300636,133.441238 116.591255,134.512054 
	C116.106529,134.104767 115.773949,133.354218 115.428238,132.294891 
z"/>
<path fill="#F8F7F7" opacity="1.000000" stroke="none" 
	d="
M285.821655,261.951996 
	C285.353516,262.176514 284.747284,262.219055 284.024689,262.003540 
	C284.500061,261.753632 285.091797,261.761810 285.821655,261.951996 
z"/>
<path fill="#F8F7F7" opacity="1.000000" stroke="none" 
	d="
M153.234360,271.091431 
	C153.739044,270.694214 154.445847,270.491730 155.515045,270.448578 
	C155.063782,270.833984 154.250137,271.060089 153.234360,271.091431 
z"/>
<path fill="#F8F7F7" opacity="1.000000" stroke="none" 
	d="
M99.869934,108.709396 
	C99.450058,109.023300 98.849060,109.193611 98.098541,109.115921 
	C98.528954,108.767220 99.108879,108.666512 99.869934,108.709396 
z"/>
<path fill="#F8F7F7" opacity="1.000000" stroke="none" 
	d="
M130.276001,244.767548 
	C129.929214,244.436951 129.721802,243.856552 129.711700,243.154495 
	C130.077789,243.527817 130.246582,244.022766 130.276001,244.767548 
z"/>
<path fill="#F8F7F7" opacity="1.000000" stroke="none" 
	d="
M165.272430,223.308548 
	C165.810715,223.703690 166.293442,224.418106 166.654633,225.491272 
	C166.094360,225.109299 165.655609,224.368561 165.272430,223.308548 
z"/>
<path fill="#F8F7F7" opacity="1.000000" stroke="none" 
	d="
M258.186462,108.726562 
	C257.500549,108.922760 256.508789,108.956856 255.020508,108.938766 
	C255.642868,108.779213 256.761749,108.671837 258.186462,108.726562 
z"/>
<path fill="#F8F7F7" opacity="1.000000" stroke="none" 
	d="
M114.153511,108.728020 
	C113.475739,108.920547 112.497566,108.956062 111.028305,108.941376 
	C111.642509,108.784447 112.747810,108.677727 114.153511,108.728020 
z"/>
<path fill="#F8F7F7" opacity="1.000000" stroke="none" 
	d="
M131.140808,108.745476 
	C130.475967,108.924545 129.508545,108.959435 128.057129,108.941727 
	C128.661499,108.793182 129.749847,108.697235 131.140808,108.745476 
z"/>
<path fill="#F8F7F7" opacity="1.000000" stroke="none" 
	d="
M214.967316,174.481537 
	C215.060440,174.466782 214.963394,174.464264 214.977051,174.430206 
	C214.990707,174.396149 214.874207,174.496277 214.967316,174.481537 
z"/>
<path fill="#F8F7F7" opacity="1.000000" stroke="none" 
	d="
M122.164223,108.737312 
	C122.325287,108.871231 121.975395,108.968391 121.975395,108.968391 
	C121.975395,108.968391 121.612289,108.965363 121.438858,108.914124 
	C121.447403,108.594971 121.693314,108.508469 122.164223,108.737312 
z"/>
<path fill="#F8F7F7" opacity="1.000000" stroke="none" 
	d="
M218.062515,194.409729 
	C217.975906,194.414856 218.065475,194.504013 218.058197,194.543213 
	C218.050903,194.582397 218.149124,194.404617 218.062515,194.409729 
z"/>
<path fill="#F8F7F7" opacity="1.000000" stroke="none" 
	d="
M232.854614,128.631409 
	C232.923386,128.712067 232.906372,128.707245 232.917892,128.711609 
	C232.929413,128.715958 232.785843,128.550751 232.854614,128.631409 
z"/>
<path fill="#F8F7F7" opacity="1.000000" stroke="none" 
	d="
M103.275070,119.100067 
	C103.407921,118.969681 103.573708,119.037872 103.808472,119.255539 
	C103.896751,119.358070 103.587578,119.436226 103.587578,119.436226 
	C103.587578,119.436226 103.327316,119.251709 103.275070,119.100067 
z"/>
<path fill="#F8F7F7" opacity="1.000000" stroke="none" 
	d="
M204.846191,200.169983 
	C205.033875,200.306625 204.983810,200.490784 204.783051,200.766388 
	C204.685379,200.872269 204.455460,200.560379 204.455460,200.560379 
	C204.455460,200.560379 204.661453,200.231918 204.846191,200.169983 
z"/>
<path fill="#F8F7F7" opacity="1.000000" stroke="none" 
	d="
M203.927887,202.670746 
	C203.934616,202.723343 203.900116,202.568298 203.898132,202.530304 
	C203.896133,202.492325 203.921143,202.618164 203.927887,202.670746 
z"/>
<path fill="#F8F7F7" opacity="1.000000" stroke="none" 
	d="
M234.076096,154.657257 
	C233.940384,154.672745 234.025146,154.374069 234.072037,154.311584 
	C234.118927,154.249084 234.341217,154.403519 234.341217,154.403519 
	C234.341217,154.403519 234.211807,154.641769 234.076096,154.657257 
z"/>
<path fill="#F8F7F7" opacity="1.000000" stroke="none" 
	d="
M186.588989,211.544159 
	C186.358856,211.509766 186.235321,211.267075 186.025848,210.625092 
	C186.191803,210.595825 186.443680,210.965851 186.588989,211.544159 
z"/>
<path fill="#F8F7F7" opacity="1.000000" stroke="none" 
	d="
M250.235870,108.719101 
	C250.139038,108.893295 249.843231,108.917107 249.102631,108.912170 
	C249.117523,108.778534 249.577209,108.673630 250.235870,108.719101 
z"/>
<path fill="#F8F7F7" opacity="1.000000" stroke="none" 
	d="
M211.058655,211.627411 
	C210.936859,211.641464 211.012634,211.380692 211.052399,211.325165 
	C211.092178,211.269638 211.180450,211.613358 211.058655,211.627411 
z"/>
<path fill="#F8F7F7" opacity="1.000000" stroke="none" 
	d="
M272.071716,122.458626 
	C271.959015,122.422592 272.059753,122.266861 272.095734,122.238358 
	C272.131714,122.209846 272.184387,122.494659 272.071716,122.458626 
z"/>
<path fill="#F8F7F7" opacity="1.000000" stroke="none" 
	d="
M158.338654,137.711731 
	C158.248688,137.839600 157.994354,137.471741 157.969971,137.361603 
	C158.192719,137.237427 158.353729,137.348236 158.338654,137.711731 
z"/>
<path fill="#F8F7F7" opacity="1.000000" stroke="none" 
	d="
M220.842743,159.285858 
	C221.003937,159.459747 220.931320,159.617340 220.692673,159.813965 
	C220.579056,159.877167 220.412704,159.556198 220.412704,159.556198 
	C220.412704,159.556198 220.661316,159.293747 220.842743,159.285858 
z"/>
<path fill="#504645" opacity="1.000000" stroke="none" 
	d="
M234.338074,271.422058 
	C236.741760,271.036774 239.428558,270.962860 242.557861,270.810120 
	C245.045334,270.788055 247.090286,270.844818 249.567596,270.823669 
	C258.671692,270.847504 267.343475,270.949219 276.479340,271.079681 
	C276.388031,271.430176 275.831390,272.034729 275.277435,272.032257 
	C261.725189,271.971802 248.173218,271.846832 234.338074,271.422058 
z"/>
<path fill="#F8F7F7" opacity="1.000000" stroke="none" 
	d="
M106.450165,263.532043 
	C106.417297,263.476868 106.483025,263.587219 106.450165,263.532043 
z"/>
<path fill="#F8F7F7" opacity="1.000000" stroke="none" 
	d="
M171.550491,178.467438 
	C171.583694,178.523010 171.517288,178.411880 171.550491,178.467438 
z"/>
<path fill="#F8F7F7" opacity="1.000000" stroke="none" 
	d="
M208.559647,212.463364 
	C208.597702,212.523911 208.521591,212.402817 208.559647,212.463364 
z"/>
<path fill="#F8F7F7" opacity="1.000000" stroke="none" 
	d="
M194.449158,246.532974 
	C194.415543,246.476868 194.482773,246.589081 194.449158,246.532974 
z"/>
</svg>