<svg version="1.1" id="Layer_1" xmlns="http://www.w3.org/2000/svg" xmlns:xlink="http://www.w3.org/1999/xlink" x="0px" y="0px"
	 width="100%" viewBox="0 0 1080 1080" enable-background="new 0 0 1080 1080" xml:space="preserve">
<path fill="#000000" opacity="1.000000" stroke="none" 
	d="
M682.000000,1081.000000 
	C454.692841,1081.000000 227.885681,1081.000000 1.039263,1081.000000 
	C1.039263,721.067749 1.039263,361.135437 1.039263,1.101576 
	C360.890717,1.101576 720.781494,1.101576 1080.836182,1.101576 
	C1080.836182,360.999939 1080.836182,720.999939 1080.836182,1081.000000 
	C948.135010,1081.000000 815.317505,1081.000000 682.000000,1081.000000 
M495.046600,295.453461 
	C469.156342,361.906128 443.266083,428.358795 417.375824,494.811462 
	C416.913879,494.775604 416.451904,494.739716 415.989960,494.703857 
	C413.991364,489.318787 412.041901,483.914886 409.986267,478.551666 
	C395.339874,440.338806 380.634125,402.148621 366.020752,363.923126 
	C349.965088,321.924805 333.949249,279.911133 318.055176,237.851562 
	C316.863342,234.697632 315.436859,233.655426 312.024231,233.668671 
	C275.194702,233.811707 238.364395,233.755020 201.534317,233.767059 
	C200.090515,233.767532 198.646729,233.909851 197.255875,233.983276 
	C197.255875,239.908310 197.255875,245.492035 197.255875,251.345551 
	C199.507736,251.565033 201.483002,251.682068 203.435333,251.960205 
	C215.363388,253.659424 227.087418,256.020996 236.613174,264.164062 
	C248.182129,274.053741 251.700027,287.423553 251.733948,301.820557 
	C251.888245,367.314423 251.933853,432.809387 251.677353,498.302612 
	C251.633209,509.569397 250.569061,520.927063 248.853363,532.069946 
	C246.355850,548.290466 236.827408,558.703735 220.455368,562.149902 
	C212.033295,563.922668 203.550720,565.408020 195.054810,567.031006 
	C195.054810,572.613464 195.054810,578.187073 195.054810,583.761841 
	C242.112518,583.761841 288.843140,583.761841 336.047272,583.761841 
	C336.047272,578.642700 336.231445,573.835632 335.899261,569.064453 
	C335.828827,568.052490 334.015808,566.661255 332.764038,566.312927 
	C324.274261,563.950378 315.716858,561.831482 307.186584,559.613647 
	C292.977814,555.919434 284.473297,546.762085 280.756744,532.644287 
	C276.517548,516.541260 275.968292,500.103973 275.944824,483.639252 
	C275.847382,415.312103 275.902222,346.984680 275.914459,278.657379 
	C275.914764,277.091309 276.072327,275.525269 276.156555,273.959198 
	C276.635529,273.740448 277.114471,273.521698 277.593445,273.302948 
	C278.588837,274.674561 279.950653,275.908661 280.524506,277.438416 
	C288.894989,299.752563 297.118011,322.122009 305.459259,344.447205 
	C322.417633,389.835907 339.454498,435.195282 356.404602,480.587067 
	C368.161957,512.072815 379.895172,543.568054 391.461853,575.124023 
	C393.151642,579.734131 396.577057,578.375244 399.667999,578.521973 
	C402.599609,578.661133 405.286346,579.051880 406.822784,575.084717 
	C413.971283,556.626648 421.516998,538.322754 428.864532,519.941284 
	C450.329193,466.242950 471.754791,412.528931 493.220886,358.831146 
	C503.319519,333.569183 513.474670,308.329865 523.608215,283.081909 
	C524.524170,280.799713 525.536316,278.669067 528.652893,280.687622 
	C528.652893,365.732086 528.712708,450.722626 528.494446,535.712463 
	C528.482178,540.471130 527.022583,545.677612 524.765320,549.886536 
	C519.824341,559.099609 511.160034,563.094971 500.997284,564.142700 
	C492.082245,565.061768 483.171722,566.024963 474.304077,566.963867 
	C474.304077,572.693726 474.304077,578.263977 474.304077,583.872253 
	C525.943298,583.872253 577.208069,583.872253 628.734619,583.872253 
	C628.734619,578.087830 628.734619,572.526062 628.734619,566.829773 
	C623.913025,566.188721 619.282104,565.761963 614.725952,564.927124 
	C605.758789,563.284058 596.591858,562.117737 589.204834,555.925293 
	C581.465454,549.437500 580.665405,540.510681 580.661682,531.385437 
	C580.628906,449.892609 580.633789,368.399811 580.668701,286.906982 
	C580.670288,283.253723 580.831177,279.568451 581.323914,275.953430 
	C582.945984,264.052246 587.864990,258.518158 599.609314,256.008209 
	C608.039917,254.206406 616.620361,253.114227 625.093262,251.492828 
	C626.339111,251.254395 628.268982,249.897293 628.331604,248.954742 
	C628.658386,244.037308 628.484070,239.086594 628.484070,234.122589 
	C589.934448,234.122589 552.055054,234.122589 514.184937,234.122589 
	C513.532959,237.404327 513.237793,240.425552 512.322571,243.245514 
	C506.743378,260.436340 501.023193,277.581451 495.046600,295.453461 
M668.802612,588.221741 
	C668.802612,593.665527 668.802612,599.109314 668.802612,604.360168 
	C676.315491,605.452759 683.560425,605.797668 690.399109,607.645691 
	C705.508484,611.728577 710.684082,613.838989 701.195129,631.842285 
	C693.715271,646.033691 682.914490,658.623169 672.683472,671.187012 
	C647.046387,702.669800 616.985535,729.755676 586.247986,756.092957 
	C584.564819,757.535156 581.906311,757.839050 579.143616,758.883911 
	C579.004395,756.453796 578.899353,755.473083 578.899170,754.492371 
	C578.891235,715.663086 578.877380,676.833862 578.923645,638.004639 
	C578.927185,635.020020 579.205566,632.013489 579.626953,629.055725 
	C581.093445,618.761780 586.612671,612.017517 597.048401,609.878601 
	C606.632507,607.914185 616.243958,606.082886 626.129639,604.136536 
	C626.129639,598.821045 626.129639,593.086487 626.129639,587.463257 
	C577.090515,587.463257 528.381836,587.463257 479.648529,587.463257 
	C479.648529,593.501770 479.648529,599.077393 479.648529,603.766724 
	C489.877289,606.809326 499.651459,609.443909 509.234741,612.649231 
	C517.669983,615.470642 523.414612,621.180542 524.870422,630.317993 
	C525.443970,633.917969 525.790894,637.596008 525.793091,641.238831 
	C525.843567,725.230042 525.842407,809.221191 525.824036,893.212402 
	C525.820190,910.686218 518.123413,919.258911 500.763397,921.233887 
	C493.718536,922.035400 486.662079,922.734802 479.644104,923.477112 
	C479.644104,929.564941 479.644104,935.152100 479.644104,940.707825 
	C528.669250,940.707825 577.379150,940.707825 626.119629,940.707825 
	C626.119629,934.733826 626.119629,929.151855 626.119629,924.286743 
	C616.259521,922.043213 606.787903,920.238403 597.520935,917.689331 
	C586.393921,914.628540 580.409363,906.967834 579.285461,895.423340 
	C579.011719,892.611084 578.910828,889.771851 578.908997,886.944885 
	C578.885071,849.115540 578.892822,811.286133 578.892700,773.456787 
	C578.892700,771.680786 578.892639,769.904785 578.892639,766.186035 
	C582.858215,768.281982 586.190063,769.091003 588.086975,771.194275 
	C605.125061,790.085266 622.309570,808.868347 638.683533,828.328918 
	C667.950012,863.112305 695.565735,899.178955 720.060059,937.537292 
	C721.775879,940.224365 723.615173,941.194763 726.843872,941.179382 
	C756.839966,941.036438 786.837158,941.099304 816.833984,941.084534 
	C818.433105,941.083740 820.032043,940.922668 821.682983,940.833374 
	C821.682983,934.776367 821.682983,929.216492 821.682983,923.526062 
	C820.580322,923.346619 819.778015,923.123413 818.969421,923.097900 
	C795.225952,922.349365 776.305542,911.203857 760.435547,894.686096 
	C750.670410,884.522461 742.175171,873.132202 733.193115,862.223999 
	C705.396851,828.467346 677.662659,794.659546 649.848083,760.918030 
	C644.824341,754.823730 639.533813,748.949463 633.386108,741.840027 
	C647.066833,728.641479 660.939392,716.349426 673.532471,702.862732 
	C694.528503,680.376953 714.914001,657.308350 735.141174,634.122742 
	C745.613586,622.118530 757.573120,612.917908 773.330566,609.474487 
	C782.526855,607.464783 791.820007,605.898438 801.083130,604.130005 
	C801.083130,598.672913 801.083130,592.965698 801.083130,587.162476 
	C799.826111,587.095764 799.003052,587.013977 798.179932,587.013855 
	C756.351013,587.006104 714.522034,587.001831 672.693115,587.022400 
	C671.550537,587.022949 670.408142,587.299744 668.802612,588.221741 
z"/>
<path fill="#FBFBFB" opacity="1.000000" stroke="none" 
	d="
M495.198334,295.097626 
	C501.023193,277.581451 506.743378,260.436340 512.322571,243.245514 
	C513.237793,240.425552 513.532959,237.404327 514.184937,234.122589 
	C552.055054,234.122589 589.934448,234.122589 628.484070,234.122589 
	C628.484070,239.086594 628.658386,244.037308 628.331604,248.954742 
	C628.268982,249.897293 626.339111,251.254395 625.093262,251.492828 
	C616.620361,253.114227 608.039917,254.206406 599.609314,256.008209 
	C587.864990,258.518158 582.945984,264.052246 581.323914,275.953430 
	C580.831177,279.568451 580.670288,283.253723 580.668701,286.906982 
	C580.633789,368.399811 580.628906,449.892609 580.661682,531.385437 
	C580.665405,540.510681 581.465454,549.437500 589.204834,555.925293 
	C596.591858,562.117737 605.758789,563.284058 614.725952,564.927124 
	C619.282104,565.761963 623.913025,566.188721 628.734619,566.829773 
	C628.734619,572.526062 628.734619,578.087830 628.734619,583.872253 
	C577.208069,583.872253 525.943298,583.872253 474.304077,583.872253 
	C474.304077,578.263977 474.304077,572.693726 474.304077,566.963867 
	C483.171722,566.024963 492.082245,565.061768 500.997284,564.142700 
	C511.160034,563.094971 519.824341,559.099609 524.765320,549.886536 
	C527.022583,545.677612 528.482178,540.471130 528.494446,535.712463 
	C528.712708,450.722626 528.652893,365.732086 528.652893,280.687622 
	C525.536316,278.669067 524.524170,280.799713 523.608215,283.081909 
	C513.474670,308.329865 503.319519,333.569183 493.220886,358.831146 
	C471.754791,412.528931 450.329193,466.242950 428.864532,519.941284 
	C421.516998,538.322754 413.971283,556.626648 406.822784,575.084717 
	C405.286346,579.051880 402.599609,578.661133 399.667999,578.521973 
	C396.577057,578.375244 393.151642,579.734131 391.461853,575.124023 
	C379.895172,543.568054 368.161957,512.072815 356.404602,480.587067 
	C339.454498,435.195282 322.417633,389.835907 305.459259,344.447205 
	C297.118011,322.122009 288.894989,299.752563 280.524506,277.438416 
	C279.950653,275.908661 278.588837,274.674561 277.593445,273.302948 
	C277.114471,273.521698 276.635529,273.740448 276.156555,273.959198 
	C276.072327,275.525269 275.914764,277.091309 275.914459,278.657379 
	C275.902222,346.984680 275.847382,415.312103 275.944824,483.639252 
	C275.968292,500.103973 276.517548,516.541260 280.756744,532.644287 
	C284.473297,546.762085 292.977814,555.919434 307.186584,559.613647 
	C315.716858,561.831482 324.274261,563.950378 332.764038,566.312927 
	C334.015808,566.661255 335.828827,568.052490 335.899261,569.064453 
	C336.231445,573.835632 336.047272,578.642700 336.047272,583.761841 
	C288.843140,583.761841 242.112518,583.761841 195.054810,583.761841 
	C195.054810,578.187073 195.054810,572.613464 195.054810,567.031006 
	C203.550720,565.408020 212.033295,563.922668 220.455368,562.149902 
	C236.827408,558.703735 246.355850,548.290466 248.853363,532.069946 
	C250.569061,520.927063 251.633209,509.569397 251.677353,498.302612 
	C251.933853,432.809387 251.888245,367.314423 251.733948,301.820557 
	C251.700027,287.423553 248.182129,274.053741 236.613174,264.164062 
	C227.087418,256.020996 215.363388,253.659424 203.435333,251.960205 
	C201.483002,251.682068 199.507736,251.565033 197.255875,251.345551 
	C197.255875,245.492035 197.255875,239.908310 197.255875,233.983276 
	C198.646729,233.909851 200.090515,233.767532 201.534317,233.767059 
	C238.364395,233.755020 275.194702,233.811707 312.024231,233.668671 
	C315.436859,233.655426 316.863342,234.697632 318.055176,237.851562 
	C333.949249,279.911133 349.965088,321.924805 366.020752,363.923126 
	C380.634125,402.148621 395.339874,440.338806 409.986267,478.551666 
	C412.041901,483.914886 413.991364,489.318787 415.989960,494.703857 
	C416.451904,494.739716 416.913879,494.775604 417.375824,494.811462 
	C443.266083,428.358795 469.156342,361.906128 495.198334,295.097626 
z"/>
<path fill="#FBFBFB" opacity="1.000000" stroke="none" 
	d="
M669.034119,587.834717 
	C670.408142,587.299744 671.550537,587.022949 672.693115,587.022400 
	C714.522034,587.001831 756.351013,587.006104 798.179932,587.013855 
	C799.003052,587.013977 799.826111,587.095764 801.083130,587.162476 
	C801.083130,592.965698 801.083130,598.672913 801.083130,604.130005 
	C791.820007,605.898438 782.526855,607.464783 773.330566,609.474487 
	C757.573120,612.917908 745.613586,622.118530 735.141174,634.122742 
	C714.914001,657.308350 694.528503,680.376953 673.532471,702.862732 
	C660.939392,716.349426 647.066833,728.641479 633.386108,741.840027 
	C639.533813,748.949463 644.824341,754.823730 649.848083,760.918030 
	C677.662659,794.659546 705.396851,828.467346 733.193115,862.223999 
	C742.175171,873.132202 750.670410,884.522461 760.435547,894.686096 
	C776.305542,911.203857 795.225952,922.349365 818.969421,923.097900 
	C819.778015,923.123413 820.580322,923.346619 821.682983,923.526062 
	C821.682983,929.216492 821.682983,934.776367 821.682983,940.833374 
	C820.032043,940.922668 818.433105,941.083740 816.833984,941.084534 
	C786.837158,941.099304 756.839966,941.036438 726.843872,941.179382 
	C723.615173,941.194763 721.775879,940.224365 720.060059,937.537292 
	C695.565735,899.178955 667.950012,863.112305 638.683533,828.328918 
	C622.309570,808.868347 605.125061,790.085266 588.086975,771.194275 
	C586.190063,769.091003 582.858215,768.281982 578.892639,766.186035 
	C578.892639,769.904785 578.892700,771.680786 578.892700,773.456787 
	C578.892822,811.286133 578.885071,849.115540 578.908997,886.944885 
	C578.910828,889.771851 579.011719,892.611084 579.285461,895.423340 
	C580.409363,906.967834 586.393921,914.628540 597.520935,917.689331 
	C606.787903,920.238403 616.259521,922.043213 626.119629,924.286743 
	C626.119629,929.151855 626.119629,934.733826 626.119629,940.707825 
	C577.379150,940.707825 528.669250,940.707825 479.644104,940.707825 
	C479.644104,935.152100 479.644104,929.564941 479.644104,923.477112 
	C486.662079,922.734802 493.718536,922.035400 500.763397,921.233887 
	C518.123413,919.258911 525.820190,910.686218 525.824036,893.212402 
	C525.842407,809.221191 525.843567,725.230042 525.793091,641.238831 
	C525.790894,637.596008 525.443970,633.917969 524.870422,630.317993 
	C523.414612,621.180542 517.669983,615.470642 509.234741,612.649231 
	C499.651459,609.443909 489.877289,606.809326 479.648529,603.766724 
	C479.648529,599.077393 479.648529,593.501770 479.648529,587.463257 
	C528.381836,587.463257 577.090515,587.463257 626.129639,587.463257 
	C626.129639,593.086487 626.129639,598.821045 626.129639,604.136536 
	C616.243958,606.082886 606.632507,607.914185 597.048401,609.878601 
	C586.612671,612.017517 581.093445,618.761780 579.626953,629.055725 
	C579.205566,632.013489 578.927185,635.020020 578.923645,638.004639 
	C578.877380,676.833862 578.891235,715.663086 578.899170,754.492371 
	C578.899353,755.473083 579.004395,756.453796 579.143616,758.883911 
	C581.906311,757.839050 584.564819,757.535156 586.247986,756.092957 
	C616.985535,729.755676 647.046387,702.669800 672.683472,671.187012 
	C682.914490,658.623169 693.715271,646.033691 701.195129,631.842285 
	C710.684082,613.838989 705.508484,611.728577 690.399109,607.645691 
	C683.560425,605.797668 676.315491,605.452759 668.802612,604.360168 
	C668.802612,599.109314 668.802612,593.665527 669.034119,587.834717 
z"/>
</svg>